# MagicaVoxel @ Ephtracy

# group
o 

# material
mtllib 코인.mtl
usemtl palette

# normals
vn -1 0 0
vn 1 0 0
vn 0 0 1
vn 0 0 -1
vn 0 -1 0
vn 0 1 0

# texcoords
vt 0.00585938 0.5
vt 0.00976562 0.5
vt 0.0175781 0.5

# verts
v 1.8 0.8 0.5
v 1.8 0.8 -0.2
v 1.8 1 1
v 1.8 1 0.5
v 1.8 1.1 0.5
v 1.8 1.1 -0.2
v 1.8 1.1 -0.7
v 1.8 1.4 0.7
v 1.8 1.4 0.5
v 1.8 1.4 -0.2
v 1.8 1.4 -0.4
v 1.8 1.8 0.7
v 1.8 1.8 0
v 1.8 2 1
v 1.8 2 0
v 1.8 2.6 0.6
v 1.8 2.6 -0.4
v 1.8 2.6 -0.7
v 1.8 2.9 0.6
v 1.8 2.9 -0.4
v 1.9 0.4 0.9
v 1.9 0.4 -1
v 1.9 0.7 1.2
v 1.9 0.7 0.9
v 1.9 0.7 -1
v 1.9 0.7 -1.3
v 1.9 0.8 0.5
v 1.9 0.8 -0.2
v 1.9 1 1.5
v 1.9 1 1.2
v 1.9 1 1
v 1.9 1 0.9
v 1.9 1 0.5
v 1.9 1 -1
v 1.9 1 -1.3
v 1.9 1 -1.6
v 1.9 1.1 0.5
v 1.9 1.1 -0.2
v 1.9 1.1 -0.7
v 1.9 1.3 1.8
v 1.9 1.3 1.5
v 1.9 1.3 1.2
v 1.9 1.3 -1.3
v 1.9 1.3 -1.6
v 1.9 1.3 -1.9
v 1.9 1.4 0.7
v 1.9 1.4 0.5
v 1.9 1.4 -0.2
v 1.9 1.4 -0.4
v 1.9 1.8 0.7
v 1.9 1.8 0
v 1.9 2 1
v 1.9 2 0
v 1.9 2.6 0.6
v 1.9 2.6 -0.4
v 1.9 2.6 -0.7
v 1.9 2.7 1.8
v 1.9 2.7 1.5
v 1.9 2.7 1.2
v 1.9 2.7 -1.3
v 1.9 2.7 -1.6
v 1.9 2.7 -1.9
v 1.9 2.9 0.6
v 1.9 2.9 -0.4
v 1.9 3 1.5
v 1.9 3 1.2
v 1.9 3 0.9
v 1.9 3 -1
v 1.9 3 -1.3
v 1.9 3 -1.6
v 1.9 3.3 1.2
v 1.9 3.3 0.9
v 1.9 3.3 -1
v 1.9 3.3 -1.3
v 1.9 3.6 0.9
v 1.9 3.6 -1
v 2 0.4 0.9
v 2 0.4 -1
v 2 0.7 1.2
v 2 0.7 0.9
v 2 0.7 -1
v 2 0.7 -1.3
v 2 1 1.5
v 2 1 1.2
v 2 1 0.9
v 2 1 -1
v 2 1 -1.3
v 2 1 -1.6
v 2 1.3 1.8
v 2 1.3 1.5
v 2 1.3 1.2
v 2 1.3 -1.3
v 2 1.3 -1.6
v 2 1.3 -1.9
v 2 2.7 1.8
v 2 2.7 1.5
v 2 2.7 1.2
v 2 2.7 -1.3
v 2 2.7 -1.6
v 2 2.7 -1.9
v 2 3 1.5
v 2 3 1.2
v 2 3 0.9
v 2 3 -1
v 2 3 -1.3
v 2 3 -1.6
v 2 3.3 1.2
v 2 3.3 0.9
v 2 3.3 -1
v 2 3.3 -1.3
v 2 3.6 0.9
v 2 3.6 -1
v 1.9 1.3 1.8
v 1.9 2.7 1.8
v 2 1.3 1.8
v 2 2.7 1.8
v 1.9 1 1.5
v 1.9 1.3 1.5
v 1.9 2.7 1.5
v 1.9 3 1.5
v 2 1 1.5
v 2 1.3 1.5
v 2 2.7 1.5
v 2 3 1.5
v 1.9 0.7 1.2
v 1.9 1 1.2
v 1.9 3 1.2
v 1.9 3.3 1.2
v 2 0.7 1.2
v 2 1 1.2
v 2 3 1.2
v 2 3.3 1.2
v 1.8 1 1
v 1.8 2 1
v 1.9 1 1
v 1.9 2 1
v 1.9 0.4 0.9
v 1.9 0.7 0.9
v 1.9 3.3 0.9
v 1.9 3.6 0.9
v 2 0.4 0.9
v 2 0.7 0.9
v 2 3.3 0.9
v 2 3.6 0.9
v 1.8 2.6 0.6
v 1.8 2.9 0.6
v 1.9 2.6 0.6
v 1.9 2.9 0.6
v 1.8 0.8 0.5
v 1.8 1 0.5
v 1.9 0.8 0.5
v 1.9 1 0.5
v 1.8 1.1 -0.2
v 1.8 1.4 -0.2
v 1.9 1.1 -0.2
v 1.9 1.4 -0.2
v 1.8 1.4 -0.4
v 1.8 2.6 -0.4
v 1.9 1.4 -0.4
v 1.9 2.6 -0.4
v 1.8 1.4 0.7
v 1.8 1.8 0.7
v 1.9 1.4 0.7
v 1.9 1.8 0.7
v 1.8 1.1 0.5
v 1.8 1.4 0.5
v 1.9 1.1 0.5
v 1.9 1.4 0.5
v 1.8 1.8 0
v 1.8 2 0
v 1.9 1.8 0
v 1.9 2 0
v 1.8 0.8 -0.2
v 1.8 1.1 -0.2
v 1.9 0.8 -0.2
v 1.9 1.1 -0.2
v 1.8 2.6 -0.4
v 1.8 2.9 -0.4
v 1.9 2.6 -0.4
v 1.9 2.9 -0.4
v 1.8 1.1 -0.7
v 1.8 2.6 -0.7
v 1.9 1.1 -0.7
v 1.9 2.6 -0.7
v 1.9 0.4 -1
v 1.9 0.7 -1
v 1.9 3.3 -1
v 1.9 3.6 -1
v 2 0.4 -1
v 2 0.7 -1
v 2 3.3 -1
v 2 3.6 -1
v 1.9 0.7 -1.3
v 1.9 1 -1.3
v 1.9 3 -1.3
v 1.9 3.3 -1.3
v 2 0.7 -1.3
v 2 1 -1.3
v 2 3 -1.3
v 2 3.3 -1.3
v 1.9 1 -1.6
v 1.9 1.3 -1.6
v 1.9 2.7 -1.6
v 1.9 3 -1.6
v 2 1 -1.6
v 2 1.3 -1.6
v 2 2.7 -1.6
v 2 3 -1.6
v 1.9 1.3 -1.9
v 1.9 2.7 -1.9
v 2 1.3 -1.9
v 2 2.7 -1.9
v 1.9 0.4 0.9
v 2 0.4 0.9
v 1.9 0.4 -1
v 2 0.4 -1
v 1.9 0.7 1.2
v 2 0.7 1.2
v 1.9 0.7 0.9
v 2 0.7 0.9
v 1.9 0.7 -1
v 2 0.7 -1
v 1.9 0.7 -1.3
v 2 0.7 -1.3
v 1.8 0.8 0.5
v 1.9 0.8 0.5
v 1.8 0.8 -0.2
v 1.9 0.8 -0.2
v 1.9 1 1.5
v 2 1 1.5
v 1.9 1 1.2
v 2 1 1.2
v 1.8 1 1
v 1.9 1 1
v 1.9 1 0.9
v 1.8 1 0.5
v 1.9 1 0.5
v 1.9 1 -1.3
v 2 1 -1.3
v 1.9 1 -1.6
v 2 1 -1.6
v 1.8 1.1 -0.2
v 1.9 1.1 -0.2
v 1.8 1.1 -0.7
v 1.9 1.1 -0.7
v 1.9 1.3 1.8
v 2 1.3 1.8
v 1.9 1.3 1.5
v 2 1.3 1.5
v 1.9 1.3 -1.6
v 2 1.3 -1.6
v 1.9 1.3 -1.9
v 2 1.3 -1.9
v 1.8 1.8 0.7
v 1.9 1.8 0.7
v 1.8 1.8 0
v 1.9 1.8 0
v 1.8 2.6 0.6
v 1.9 2.6 0.6
v 1.8 2.6 -0.4
v 1.9 2.6 -0.4
v 1.8 1.1 0.5
v 1.9 1.1 0.5
v 1.8 1.1 -0.2
v 1.9 1.1 -0.2
v 1.8 1.4 0.7
v 1.9 1.4 0.7
v 1.8 1.4 0.5
v 1.9 1.4 0.5
v 1.8 1.4 -0.2
v 1.9 1.4 -0.2
v 1.8 1.4 -0.4
v 1.9 1.4 -0.4
v 1.8 2 1
v 1.9 2 1
v 1.8 2 0
v 1.9 2 0
v 1.8 2.6 -0.4
v 1.9 2.6 -0.4
v 1.8 2.6 -0.7
v 1.9 2.6 -0.7
v 1.9 2.7 1.8
v 2 2.7 1.8
v 1.9 2.7 1.5
v 2 2.7 1.5
v 1.9 2.7 -1.6
v 2 2.7 -1.6
v 1.9 2.7 -1.9
v 2 2.7 -1.9
v 1.8 2.9 0.6
v 1.9 2.9 0.6
v 1.8 2.9 -0.4
v 1.9 2.9 -0.4
v 1.9 3 1.5
v 2 3 1.5
v 1.9 3 1.2
v 2 3 1.2
v 1.9 3 -1.3
v 2 3 -1.3
v 1.9 3 -1.6
v 2 3 -1.6
v 1.9 3.3 1.2
v 2 3.3 1.2
v 1.9 3.3 0.9
v 2 3.3 0.9
v 1.9 3.3 -1
v 2 3.3 -1
v 1.9 3.3 -1.3
v 2 3.3 -1.3
v 1.9 3.6 0.9
v 2 3.6 0.9
v 1.9 3.6 -1
v 2 3.6 -1

# faces
f 4/1/1 2/1/1 1/1/1
f 5/1/1 2/1/1 4/1/1
f 5/1/1 4/1/1 3/1/1
f 6/1/1 2/1/1 5/1/1
f 8/1/1 5/1/1 3/1/1
f 9/1/1 5/1/1 8/1/1
f 10/1/1 7/1/1 6/1/1
f 11/1/1 7/1/1 10/1/1
f 12/1/1 8/1/1 3/1/1
f 14/1/1 12/1/1 3/1/1
f 14/1/1 13/1/1 12/1/1
f 15/1/1 13/1/1 14/1/1
f 17/1/1 7/1/1 11/1/1
f 18/1/1 7/1/1 17/1/1
f 19/1/1 17/1/1 16/1/1
f 20/1/1 17/1/1 19/1/1
f 24/2/1 22/2/1 21/2/1
f 25/2/1 22/2/1 24/2/1
f 27/3/1 25/3/1 24/3/1
f 28/3/1 25/3/1 27/3/1
f 30/2/1 24/2/1 23/2/1
f 31/2/1 24/2/1 30/2/1
f 32/3/1 27/3/1 24/3/1
f 32/2/1 24/2/1 31/2/1
f 33/3/1 27/3/1 32/3/1
f 34/3/1 25/3/1 28/3/1
f 34/2/1 26/2/1 25/2/1
f 35/2/1 26/2/1 34/2/1
f 38/3/1 35/3/1 34/3/1
f 38/3/1 34/3/1 28/3/1
f 39/3/1 35/3/1 38/3/1
f 41/2/1 30/2/1 29/2/1
f 42/3/1 31/3/1 30/3/1
f 42/2/1 30/2/1 41/2/1
f 43/2/1 36/2/1 35/2/1
f 43/3/1 35/3/1 39/3/1
f 44/2/1 36/2/1 43/2/1
f 47/3/1 38/3/1 37/3/1
f 48/3/1 38/3/1 47/3/1
f 50/3/1 47/3/1 46/3/1
f 50/3/1 49/3/1 48/3/1
f 50/3/1 48/3/1 47/3/1
f 51/3/1 49/3/1 50/3/1
f 52/3/1 31/3/1 42/3/1
f 52/3/1 42/3/1 41/3/1
f 53/3/1 49/3/1 51/3/1
f 54/3/1 53/3/1 52/3/1
f 55/3/1 49/3/1 53/3/1
f 55/3/1 53/3/1 54/3/1
f 56/3/1 43/3/1 39/3/1
f 56/3/1 44/3/1 43/3/1
f 57/2/1 41/2/1 40/2/1
f 58/3/1 52/3/1 41/3/1
f 58/2/1 41/2/1 57/2/1
f 58/3/1 54/3/1 52/3/1
f 59/3/1 54/3/1 58/3/1
f 60/3/1 56/3/1 55/3/1
f 60/3/1 44/3/1 56/3/1
f 61/2/1 45/2/1 44/2/1
f 61/3/1 44/3/1 60/3/1
f 62/2/1 45/2/1 61/2/1
f 63/3/1 54/3/1 59/3/1
f 64/3/1 60/3/1 55/3/1
f 65/2/1 59/2/1 58/2/1
f 66/3/1 63/3/1 59/3/1
f 66/2/1 59/2/1 65/2/1
f 66/3/1 64/3/1 63/3/1
f 67/3/1 64/3/1 66/3/1
f 68/3/1 60/3/1 64/3/1
f 68/3/1 64/3/1 67/3/1
f 69/2/1 61/2/1 60/2/1
f 69/3/1 60/3/1 68/3/1
f 70/2/1 61/2/1 69/2/1
f 71/2/1 67/2/1 66/2/1
f 72/3/1 68/3/1 67/3/1
f 72/2/1 67/2/1 71/2/1
f 73/2/1 69/2/1 68/2/1
f 73/3/1 68/3/1 72/3/1
f 74/2/1 69/2/1 73/2/1
f 75/2/1 73/2/1 72/2/1
f 76/2/1 73/2/1 75/2/1
f 77/2/2 78/2/2 80/2/2
f 80/2/2 78/2/2 81/2/2
f 79/2/2 80/2/2 84/2/2
f 80/3/2 81/3/2 85/3/2
f 84/2/2 80/2/2 85/2/2
f 81/2/2 82/2/2 86/2/2
f 85/3/2 81/3/2 86/3/2
f 86/2/2 82/2/2 87/2/2
f 83/2/2 84/2/2 90/2/2
f 84/3/2 85/3/2 91/3/2
f 85/3/2 86/3/2 91/3/2
f 90/2/2 84/2/2 91/2/2
f 86/3/2 87/3/2 91/3/2
f 87/2/2 88/2/2 92/2/2
f 91/3/2 87/3/2 92/3/2
f 92/2/2 88/2/2 93/2/2
f 89/2/2 90/2/2 95/2/2
f 90/3/2 91/3/2 96/3/2
f 95/2/2 90/2/2 96/2/2
f 91/3/2 92/3/2 96/3/2
f 92/3/2 93/3/2 96/3/2
f 96/3/2 93/3/2 97/3/2
f 97/3/2 93/3/2 98/3/2
f 93/2/2 94/2/2 99/2/2
f 98/3/2 93/3/2 99/3/2
f 99/2/2 94/2/2 100/2/2
f 96/2/2 97/2/2 101/2/2
f 97/3/2 98/3/2 102/3/2
f 101/2/2 97/2/2 102/2/2
f 102/3/2 98/3/2 103/3/2
f 103/3/2 98/3/2 104/3/2
f 98/2/2 99/2/2 105/2/2
f 104/3/2 98/3/2 105/3/2
f 105/2/2 99/2/2 106/2/2
f 102/2/2 103/2/2 107/2/2
f 103/3/2 104/3/2 108/3/2
f 107/2/2 103/2/2 108/2/2
f 104/2/2 105/2/2 109/2/2
f 108/3/2 104/3/2 109/3/2
f 109/2/2 105/2/2 110/2/2
f 108/2/2 109/2/2 111/2/2
f 111/2/2 109/2/2 112/2/2
f 115/2/3 114/2/3 113/2/3
f 116/2/3 114/2/3 115/2/3
f 121/2/3 118/2/3 117/2/3
f 122/2/3 118/2/3 121/2/3
f 123/2/3 120/2/3 119/2/3
f 124/2/3 120/2/3 123/2/3
f 129/2/3 126/2/3 125/2/3
f 130/2/3 126/2/3 129/2/3
f 131/2/3 128/2/3 127/2/3
f 132/2/3 128/2/3 131/2/3
f 135/1/3 134/1/3 133/1/3
f 136/1/3 134/1/3 135/1/3
f 141/2/3 138/2/3 137/2/3
f 142/2/3 138/2/3 141/2/3
f 143/2/3 140/2/3 139/2/3
f 144/2/3 140/2/3 143/2/3
f 147/1/3 146/1/3 145/1/3
f 148/1/3 146/1/3 147/1/3
f 151/1/3 150/1/3 149/1/3
f 152/1/3 150/1/3 151/1/3
f 155/1/3 154/1/3 153/1/3
f 156/1/3 154/1/3 155/1/3
f 159/1/3 158/1/3 157/1/3
f 160/1/3 158/1/3 159/1/3
f 161/1/4 162/1/4 163/1/4
f 163/1/4 162/1/4 164/1/4
f 165/1/4 166/1/4 167/1/4
f 167/1/4 166/1/4 168/1/4
f 169/1/4 170/1/4 171/1/4
f 171/1/4 170/1/4 172/1/4
f 173/1/4 174/1/4 175/1/4
f 175/1/4 174/1/4 176/1/4
f 177/1/4 178/1/4 179/1/4
f 179/1/4 178/1/4 180/1/4
f 181/1/4 182/1/4 183/1/4
f 183/1/4 182/1/4 184/1/4
f 185/2/4 186/2/4 189/2/4
f 189/2/4 186/2/4 190/2/4
f 187/2/4 188/2/4 191/2/4
f 191/2/4 188/2/4 192/2/4
f 193/2/4 194/2/4 197/2/4
f 197/2/4 194/2/4 198/2/4
f 195/2/4 196/2/4 199/2/4
f 199/2/4 196/2/4 200/2/4
f 201/2/4 202/2/4 205/2/4
f 205/2/4 202/2/4 206/2/4
f 203/2/4 204/2/4 207/2/4
f 207/2/4 204/2/4 208/2/4
f 209/2/4 210/2/4 211/2/4
f 211/2/4 210/2/4 212/2/4
f 215/2/5 214/2/5 213/2/5
f 216/2/5 214/2/5 215/2/5
f 219/2/5 218/2/5 217/2/5
f 220/2/5 218/2/5 219/2/5
f 223/2/5 222/2/5 221/2/5
f 224/2/5 222/2/5 223/2/5
f 227/1/5 226/1/5 225/1/5
f 228/1/5 226/1/5 227/1/5
f 231/2/5 230/2/5 229/2/5
f 232/2/5 230/2/5 231/2/5
f 235/1/5 234/1/5 233/1/5
f 236/1/5 235/1/5 233/1/5
f 237/1/5 235/1/5 236/1/5
f 240/2/5 239/2/5 238/2/5
f 241/2/5 239/2/5 240/2/5
f 244/1/5 243/1/5 242/1/5
f 245/1/5 243/1/5 244/1/5
f 248/2/5 247/2/5 246/2/5
f 249/2/5 247/2/5 248/2/5
f 252/2/5 251/2/5 250/2/5
f 253/2/5 251/2/5 252/2/5
f 256/1/5 255/1/5 254/1/5
f 257/1/5 255/1/5 256/1/5
f 260/1/5 259/1/5 258/1/5
f 261/1/5 259/1/5 260/1/5
f 262/1/6 263/1/6 264/1/6
f 264/1/6 263/1/6 265/1/6
f 266/1/6 267/1/6 268/1/6
f 268/1/6 267/1/6 269/1/6
f 270/1/6 271/1/6 272/1/6
f 272/1/6 271/1/6 273/1/6
f 274/1/6 275/1/6 276/1/6
f 276/1/6 275/1/6 277/1/6
f 278/1/6 279/1/6 280/1/6
f 280/1/6 279/1/6 281/1/6
f 282/2/6 283/2/6 284/2/6
f 284/2/6 283/2/6 285/2/6
f 286/2/6 287/2/6 288/2/6
f 288/2/6 287/2/6 289/2/6
f 290/1/6 291/1/6 292/1/6
f 292/1/6 291/1/6 293/1/6
f 294/2/6 295/2/6 296/2/6
f 296/2/6 295/2/6 297/2/6
f 298/2/6 299/2/6 300/2/6
f 300/2/6 299/2/6 301/2/6
f 302/2/6 303/2/6 304/2/6
f 304/2/6 303/2/6 305/2/6
f 306/2/6 307/2/6 308/2/6
f 308/2/6 307/2/6 309/2/6
f 310/2/6 311/2/6 312/2/6
f 312/2/6 311/2/6 313/2/6
