# MagicaVoxel @ Ephtracy

# group
o 

# material
mtllib untitled.mtl
usemtl palette

# normals
vn -1 0 0
vn 1 0 0
vn 0 0 1
vn 0 0 -1
vn 0 -1 0
vn 0 1 0

# texcoords
vt 0.845703 0.5
vt 0.970703 0.5

# verts
v -0.7 0.1 -5.96046e-08
v -0.7 0.1 -0.1
v -0.7 0.1 -0.3
v -0.7 0.1 -0.6
v -0.7 0.1 -0.7
v -0.7 0.1 -0.8
v -0.7 0.2 0.0999999
v -0.7 0.2 -5.96046e-08
v -0.7 0.2 -0.3
v -0.7 0.2 -0.5
v -0.7 0.2 -1
v -0.7 0.2 -1.1
v -0.7 0.3 -0.1
v -0.7 0.3 -0.3
v -0.7 0.3 -0.8
v -0.7 0.3 -0.9
v -0.7 0.4 0.0999999
v -0.7 0.4 -0.3
v -0.7 0.4 -0.5
v -0.7 0.4 -0.6
v -0.7 0.4 -0.7
v -0.7 0.4 -0.9
v -0.7 0.4 -1
v -0.7 0.4 -1.1
v -0.6 0 0.4
v -0.6 0 0.3
v -0.6 0 -1.2
v -0.6 0.1 -5.96046e-08
v -0.6 0.1 -0.1
v -0.6 0.1 -0.3
v -0.6 0.1 -0.6
v -0.6 0.1 -0.7
v -0.6 0.1 -0.8
v -0.6 0.2 0.0999999
v -0.6 0.2 -5.96046e-08
v -0.6 0.2 -0.3
v -0.6 0.2 -0.5
v -0.6 0.2 -1
v -0.6 0.2 -1.1
v -0.6 0.3 -0.1
v -0.6 0.3 -0.3
v -0.6 0.3 -0.8
v -0.6 0.3 -0.9
v -0.6 0.4 0.0999999
v -0.6 0.4 -0.3
v -0.6 0.4 -0.5
v -0.6 0.4 -0.6
v -0.6 0.4 -0.7
v -0.6 0.4 -0.9
v -0.6 0.4 -1
v -0.6 0.4 -1.1
v -0.6 0.5 0.4
v -0.6 0.5 0.3
v -0.6 0.5 -1.2
v -0.5 0.1 0.5
v -0.5 0.1 0.4
v -0.5 0.4 0.5
v -0.5 0.4 0.4
v -0.4 0.2 0.6
v -0.4 0.2 0.5
v -0.4 0.3 0.6
v -0.4 0.3 0.5
v -0.2 0.2 0.6
v -0.2 0.2 0.5
v -0.2 0.3 0.6
v -0.2 0.3 0.5
v -0.1 0.1 0.5
v -0.1 0.1 0.4
v -0.1 0.4 0.5
v -0.1 0.4 0.4
v 5.96046e-08 0 0.4
v 5.96046e-08 0 0.3
v 5.96046e-08 0 -1.2
v 5.96046e-08 0.5 0.4
v 5.96046e-08 0.5 0.3
v 5.96046e-08 0.5 -1.2
v -0.4 0.2 0.6
v -0.4 0.3 0.6
v -0.2 0.2 0.6
v -0.2 0.3 0.6
v -0.5 0.1 0.5
v -0.5 0.4 0.5
v -0.4 0.2 0.5
v -0.4 0.3 0.5
v -0.2 0.2 0.5
v -0.2 0.3 0.5
v -0.1 0.1 0.5
v -0.1 0.4 0.5
v -0.6 0 0.4
v -0.6 0.5 0.4
v -0.5 0.1 0.4
v -0.5 0.4 0.4
v -0.1 0.1 0.4
v -0.1 0.4 0.4
v 5.96046e-08 0 0.4
v 5.96046e-08 0.5 0.4
v -0.7 0.2 0.0999999
v -0.7 0.4 0.0999999
v -0.6 0.2 0.0999999
v -0.6 0.4 0.0999999
v -0.7 0.1 -5.96046e-08
v -0.7 0.2 -5.96046e-08
v -0.6 0.1 -5.96046e-08
v -0.6 0.2 -5.96046e-08
v -0.7 0.1 -0.3
v -0.7 0.2 -0.3
v -0.6 0.1 -0.3
v -0.6 0.2 -0.3
v -0.7 0.2 -0.5
v -0.7 0.4 -0.5
v -0.6 0.2 -0.5
v -0.6 0.4 -0.5
v -0.7 0.1 -0.7
v -0.7 0.4 -0.7
v -0.6 0.1 -0.7
v -0.6 0.4 -0.7
v -0.7 0.2 -1
v -0.7 0.4 -1
v -0.6 0.2 -1
v -0.6 0.4 -1
v -0.7 0.1 -0.1
v -0.7 0.3 -0.1
v -0.6 0.1 -0.1
v -0.6 0.3 -0.1
v -0.7 0.3 -0.3
v -0.7 0.4 -0.3
v -0.6 0.3 -0.3
v -0.6 0.4 -0.3
v -0.7 0.1 -0.6
v -0.7 0.4 -0.6
v -0.6 0.1 -0.6
v -0.6 0.4 -0.6
v -0.7 0.1 -0.8
v -0.7 0.3 -0.8
v -0.6 0.1 -0.8
v -0.6 0.3 -0.8
v -0.7 0.3 -0.9
v -0.7 0.4 -0.9
v -0.6 0.3 -0.9
v -0.6 0.4 -0.9
v -0.7 0.2 -1.1
v -0.7 0.4 -1.1
v -0.6 0.2 -1.1
v -0.6 0.4 -1.1
v -0.6 0 -1.2
v -0.6 0.5 -1.2
v 5.96046e-08 0 -1.2
v 5.96046e-08 0.5 -1.2
v -0.6 0 0.4
v 5.96046e-08 0 0.4
v -0.6 0 0.3
v 5.96046e-08 0 0.3
v -0.6 0 -1.2
v 5.96046e-08 0 -1.2
v -0.5 0.1 0.5
v -0.1 0.1 0.5
v -0.5 0.1 0.4
v -0.1 0.1 0.4
v -0.7 0.1 -5.96046e-08
v -0.6 0.1 -5.96046e-08
v -0.7 0.1 -0.1
v -0.6 0.1 -0.1
v -0.7 0.1 -0.3
v -0.6 0.1 -0.3
v -0.7 0.1 -0.6
v -0.6 0.1 -0.6
v -0.7 0.1 -0.7
v -0.6 0.1 -0.7
v -0.7 0.1 -0.8
v -0.6 0.1 -0.8
v -0.4 0.2 0.6
v -0.2 0.2 0.6
v -0.4 0.2 0.5
v -0.2 0.2 0.5
v -0.7 0.2 0.0999999
v -0.6 0.2 0.0999999
v -0.7 0.2 -5.96046e-08
v -0.6 0.2 -5.96046e-08
v -0.7 0.2 -1
v -0.6 0.2 -1
v -0.7 0.2 -1.1
v -0.6 0.2 -1.1
v -0.7 0.3 -0.1
v -0.6 0.3 -0.1
v -0.7 0.3 -0.3
v -0.6 0.3 -0.3
v -0.7 0.3 -0.8
v -0.6 0.3 -0.8
v -0.7 0.3 -0.9
v -0.6 0.3 -0.9
v -0.7 0.2 -0.3
v -0.6 0.2 -0.3
v -0.7 0.2 -0.5
v -0.6 0.2 -0.5
v -0.4 0.3 0.6
v -0.2 0.3 0.6
v -0.4 0.3 0.5
v -0.2 0.3 0.5
v -0.5 0.4 0.5
v -0.1 0.4 0.5
v -0.5 0.4 0.4
v -0.1 0.4 0.4
v -0.7 0.4 0.0999999
v -0.6 0.4 0.0999999
v -0.7 0.4 -0.3
v -0.6 0.4 -0.3
v -0.7 0.4 -0.5
v -0.6 0.4 -0.5
v -0.7 0.4 -0.6
v -0.6 0.4 -0.6
v -0.7 0.4 -0.7
v -0.6 0.4 -0.7
v -0.7 0.4 -0.9
v -0.6 0.4 -0.9
v -0.7 0.4 -1
v -0.6 0.4 -1
v -0.7 0.4 -1.1
v -0.6 0.4 -1.1
v -0.6 0.5 0.4
v 5.96046e-08 0.5 0.4
v -0.6 0.5 0.3
v 5.96046e-08 0.5 0.3
v -0.6 0.5 -1.2
v 5.96046e-08 0.5 -1.2

# faces
f 8/1/1 2/1/1 1/1/1
f 9/1/1 4/1/1 3/1/1
f 10/1/1 4/1/1 9/1/1
f 13/1/1 8/1/1 7/1/1
f 13/1/1 2/1/1 8/1/1
f 15/1/1 6/1/1 5/1/1
f 17/1/1 14/1/1 13/1/1
f 17/1/1 13/1/1 7/1/1
f 18/1/1 14/1/1 17/1/1
f 19/1/1 4/1/1 10/1/1
f 20/1/1 4/1/1 19/1/1
f 21/1/1 16/1/1 15/1/1
f 21/1/1 15/1/1 5/1/1
f 22/1/1 16/1/1 21/1/1
f 23/1/1 12/1/1 11/1/1
f 24/1/1 12/1/1 23/1/1
f 28/2/1 27/2/1 26/2/1
f 29/2/1 27/2/1 28/2/1
f 30/2/1 27/2/1 29/2/1
f 31/2/1 27/2/1 30/2/1
f 32/2/1 27/2/1 31/2/1
f 33/2/1 27/2/1 32/2/1
f 34/2/1 28/2/1 26/2/1
f 35/2/1 28/2/1 34/2/1
f 36/2/1 30/2/1 29/2/1
f 38/2/1 27/2/1 33/2/1
f 39/2/1 27/2/1 38/2/1
f 40/2/1 37/2/1 36/2/1
f 40/2/1 36/2/1 29/2/1
f 41/2/1 37/2/1 40/2/1
f 42/2/1 38/2/1 33/2/1
f 43/2/1 38/2/1 42/2/1
f 44/2/1 34/2/1 26/2/1
f 45/2/1 37/2/1 41/2/1
f 46/2/1 37/2/1 45/2/1
f 47/2/1 32/2/1 31/2/1
f 48/2/1 32/2/1 47/2/1
f 49/2/1 38/2/1 43/2/1
f 50/2/1 38/2/1 49/2/1
f 51/2/1 27/2/1 39/2/1
f 52/1/1 26/1/1 25/1/1
f 53/2/1 51/2/1 50/2/1
f 53/1/1 26/1/1 52/1/1
f 53/2/1 50/2/1 49/2/1
f 53/2/1 46/2/1 45/2/1
f 53/2/1 44/2/1 26/2/1
f 53/2/1 49/2/1 48/2/1
f 53/2/1 48/2/1 47/2/1
f 53/2/1 47/2/1 46/2/1
f 53/2/1 45/2/1 44/2/1
f 54/2/1 27/2/1 51/2/1
f 54/2/1 51/2/1 53/2/1
f 57/1/1 56/1/1 55/1/1
f 58/1/1 56/1/1 57/1/1
f 61/1/1 60/1/1 59/1/1
f 62/1/1 60/1/1 61/1/1
f 63/1/2 64/1/2 65/1/2
f 65/1/2 64/1/2 66/1/2
f 67/1/2 68/1/2 69/1/2
f 69/1/2 68/1/2 70/1/2
f 71/1/2 72/1/2 74/1/2
f 72/2/2 73/2/2 75/2/2
f 74/1/2 72/1/2 75/1/2
f 75/2/2 73/2/2 76/2/2
f 79/1/3 78/1/3 77/1/3
f 80/1/3 78/1/3 79/1/3
f 83/1/3 82/1/3 81/1/3
f 84/1/3 82/1/3 83/1/3
f 85/1/3 83/1/3 81/1/3
f 86/1/3 82/1/3 84/1/3
f 87/1/3 85/1/3 81/1/3
f 87/1/3 86/1/3 85/1/3
f 88/1/3 82/1/3 86/1/3
f 88/1/3 86/1/3 87/1/3
f 91/1/3 90/1/3 89/1/3
f 92/1/3 90/1/3 91/1/3
f 93/1/3 91/1/3 89/1/3
f 94/1/3 90/1/3 92/1/3
f 95/1/3 93/1/3 89/1/3
f 95/1/3 94/1/3 93/1/3
f 96/1/3 90/1/3 94/1/3
f 96/1/3 94/1/3 95/1/3
f 99/1/3 98/1/3 97/1/3
f 100/1/3 98/1/3 99/1/3
f 103/1/3 102/1/3 101/1/3
f 104/1/3 102/1/3 103/1/3
f 107/1/3 106/1/3 105/1/3
f 108/1/3 106/1/3 107/1/3
f 111/1/3 110/1/3 109/1/3
f 112/1/3 110/1/3 111/1/3
f 115/1/3 114/1/3 113/1/3
f 116/1/3 114/1/3 115/1/3
f 119/1/3 118/1/3 117/1/3
f 120/1/3 118/1/3 119/1/3
f 121/1/4 122/1/4 123/1/4
f 123/1/4 122/1/4 124/1/4
f 125/1/4 126/1/4 127/1/4
f 127/1/4 126/1/4 128/1/4
f 129/1/4 130/1/4 131/1/4
f 131/1/4 130/1/4 132/1/4
f 133/1/4 134/1/4 135/1/4
f 135/1/4 134/1/4 136/1/4
f 137/1/4 138/1/4 139/1/4
f 139/1/4 138/1/4 140/1/4
f 141/1/4 142/1/4 143/1/4
f 143/1/4 142/1/4 144/1/4
f 145/2/4 146/2/4 147/2/4
f 147/2/4 146/2/4 148/2/4
f 151/1/5 150/1/5 149/1/5
f 152/1/5 150/1/5 151/1/5
f 153/2/5 152/2/5 151/2/5
f 154/2/5 152/2/5 153/2/5
f 157/1/5 156/1/5 155/1/5
f 158/1/5 156/1/5 157/1/5
f 161/1/5 160/1/5 159/1/5
f 162/1/5 160/1/5 161/1/5
f 165/1/5 164/1/5 163/1/5
f 166/1/5 164/1/5 165/1/5
f 169/1/5 168/1/5 167/1/5
f 170/1/5 168/1/5 169/1/5
f 173/1/5 172/1/5 171/1/5
f 174/1/5 172/1/5 173/1/5
f 177/1/5 176/1/5 175/1/5
f 178/1/5 176/1/5 177/1/5
f 181/1/5 180/1/5 179/1/5
f 182/1/5 180/1/5 181/1/5
f 185/1/5 184/1/5 183/1/5
f 186/1/5 184/1/5 185/1/5
f 189/1/5 188/1/5 187/1/5
f 190/1/5 188/1/5 189/1/5
f 191/1/6 192/1/6 193/1/6
f 193/1/6 192/1/6 194/1/6
f 195/1/6 196/1/6 197/1/6
f 197/1/6 196/1/6 198/1/6
f 199/1/6 200/1/6 201/1/6
f 201/1/6 200/1/6 202/1/6
f 203/1/6 204/1/6 205/1/6
f 205/1/6 204/1/6 206/1/6
f 207/1/6 208/1/6 209/1/6
f 209/1/6 208/1/6 210/1/6
f 211/1/6 212/1/6 213/1/6
f 213/1/6 212/1/6 214/1/6
f 215/1/6 216/1/6 217/1/6
f 217/1/6 216/1/6 218/1/6
f 219/1/6 220/1/6 221/1/6
f 221/1/6 220/1/6 222/1/6
f 221/2/6 222/2/6 223/2/6
f 223/2/6 222/2/6 224/2/6
